<svg xmlns="http://www.w3.org/2000/svg" viewBox="-264 355.5 82.6 82.5" enable-background="new -264 355.5 82.6 82.5"><style type="text/css">.st0{fill:#694682;} .st1{fill:#FFFFFF;} .st2{enable-background:new ;} .st3{fill:#FCFCFC;} .st4{fill:#B05AED;}</style><path class="st0" d="M-988.1 1498h-53.5c-4.5 0-8.1-3.7-8.1-8.1v-53.5c0-4.5 3.7-8.1 8.1-8.1h53.5c4.5 0 8.1 3.7 8.1 8.1v53.5c.1 4.4-3.6 8.1-8.1 8.1z"/><path class="st1" d="M-1000.4 1437.6h-.5.5z"/><text transform="translate(-1043.615 1477.146)" class="st3" font-family="Arial-Black" font-size="41">Be</text><path class="st3" d="M-1004.1 1449.8h11.9v3.5h-11.9z"/><path class="st4" d="M-713.6 1076.3v64.8c0 3-1.6 4.6-4.5 4.6h-65c-3.1 0-4.7-1.6-4.7-4.6v-64.8c0-3.2 1.5-4.6 4.6-4.7h64.8c3.2 0 4.8 1.6 4.8 4.7z"/><path class="st1" d="M-754.6 1104.6c2.3.9 4.3 2 4.9 4.6.8 3.5 1.2 7-.5 10.3-1.9 3.7-5.4 5.1-9.3 5.3-6 .2-12 .1-18 .1-1 0-1.3-.5-1.3-1.4v-34.4c0-1.1.4-1.5 1.5-1.5 5.5 0 11-.1 16.6.1 1.8 0 3.6.5 5.3 1.1 3.1 1.1 5 3.4 5.1 6.8.2 3.3-.6 6.4-3.6 8.3-.2.1-.4.2-.5.3 0 .1 0 .1-.2.4zm-15.1 13.4c3.1 0 6 .2 8.8-.1 2.6-.2 3.9-2 4-4.7.1-2.3-1.1-4.2-3.6-4.4-3-.3-6.1-.1-9.2-.1v9.3zm-.1-23.7v6.7c0 .9.5 1.1 1.2 1.1 2.2 0 4.3 0 6.5-.1 2.3-.1 3.7-1.4 3.9-3.3.2-2.2-1.1-4.1-3.5-4.3-2.6-.3-5.2-.1-8.1-.1zM-740.7 1113.1c-.2 2.7 1.5 5.5 3.7 6.2 2.7.8 5.3-.1 6.9-2.5.2-.3.6-.6 1-.6 1.9-.1 3.9 0 6 0-.5 3.5-2.2 6-4.9 7.8-4.8 3.1-12.8 2.9-17.1-2.7-5.7-7.5-4-18.3 4-23 7.1-4.1 17.1.7 18.2 8.9.2 1.4.2 2.9.3 4.4.1 1.2-.4 1.6-1.6 1.6-4.9-.1-9.8 0-14.8 0-.6-.1-1.2-.1-1.7-.1zm10-5.4c-.1-2.9-2-4.8-4.8-4.8-2.8-.1-5.1 2-5.3 4.8h10.1zM-735.9 1095.6h-10.1c-1.1 0-1.7-.2-1.6-1.5.1-4-.6-3.5 3.5-3.5h18c1.6 0 2.2.3 2.1 2.1-.1 3 0 3-3.1 3-2.8-.1-5.8-.1-8.8-.1zM-240.3 391.3v-5.8c2.5 0 4.9-.2 7.2 0 2.1.2 3.2 1.8 3.1 3.8-.1 1.7-1.4 2.9-3.4 3l-5.8.1c-.8 0-1.1-.2-1.1-1.1zM-228.9 402.2c0 2.5-1.2 4.2-3.6 4.4-2.5.2-5.1 0-7.7 0v-8.4c2.7 0 5.3-.2 7.8 0 2.2.3 3.5 2 3.5 4zM-190.4 359.8h-64.7c-3.1 0-4.6 1.5-4.6 4.6v64.7c0 3.1 1.6 4.6 4.7 4.6h64.8c2.9 0 4.5-1.6 4.5-4.6v-64.7c-.1-3.1-1.6-4.6-4.7-4.6zm-29.6 24.1c0-1.2 1-.9 1.6-.9h18.2c.8 0 1.3.3 1.2 1.2-.1 1 0 2 0 3.2h-21v-3.5zm-2.3 24.7c-1.7 3.3-4.8 4.6-8.2 4.8-5.4.2-10.8 0-16.2.1-1.3 0-1.1-.8-1.1-1.6v-26.9c0-1.2-.1-2.4 0-3.6 0-.4.6-1.1.9-1.1 5.6 0 11.2.1 16.7.2.8 0 1.6.3 2.4.5 2.8.9 4.9 2.6 5.2 5.7.4 3.4-.2 6.3-3.5 8.2l-.3.3c0 .1.1.1.1.1 1.9.9 3.7 1.9 4.2 4.2 1 3.1 1.3 6.2-.2 9.1zm23-5.6h-13.4c-.4 0-.9 0-1.3.1-.2 2.4 1.4 4.9 3.3 5.5 2.4.8 4.7-.1 6.1-2.2.2-.3.6-.6.9-.6 1.7-.1 3.4 0 5.2 0 .2 2.7-2.6 6.5-5.4 7.7-8.9 3.7-16-2.2-16.9-10.5-.6-5.7 1.7-10.1 6.5-13 6.3-3.8 15.2.6 16.2 7.9.2 1.3.2 2.6.3 3.9 0 .9-.4 1.3-1.5 1.2zm-9.3-9c-2.8-.4-4.9 1.2-5.5 4.2h8.9c.3-2.1-1.2-3.9-3.4-4.2z"/></svg>