<svg xmlns="http://www.w3.org/2000/svg" viewBox="-264 355.5 82.6 82.5" enable-background="new -264 355.5 82.6 82.5"><style type="text/css">.st0{fill:#694682;} .st1{fill:#FFFFFF;} .st2{fill:#B05AED;} .st3{fill:#7108AF;}</style><path class="st0" d="M-1252.1 1853.5h-53.5c-4.5 0-8.1-3.7-8.1-8.1v-53.5c0-4.5 3.7-8.1 8.1-8.1h53.5c4.5 0 8.1 3.7 8.1 8.1v53.5c.1 4.4-3.6 8.1-8.1 8.1z"/><path class="st1" d="M-1264.1 1807v4.4h8.9v7.2h-8.9v34.9h-7.8v-34.9h-8.9v-7.2h8.9v-13.8c0-3.8 5-4.4 6.9-4.5h9.9v7.7h-6.5c-3.1.1-2.5 6.2-2.5 6.2zM-1264.4 1793.1h-.5.5zM-976.6 1501.4h-77.2v-77.2h77.2v77.2zm-24.1-1.5h18.1c2.9 0 4.5-1.6 4.5-4.6v-64.8c0-3.1-1.5-4.7-4.6-4.7h-64.8c-3.1 0-4.6 1.5-4.6 4.6v64.8c0 3.1 1.6 4.6 4.7 4.6h32.8l1.8-.1v-28.4c-2.7 0-5.2-.1-7.7 0-1.3 0-1.8-.4-1.8-1.7.1-2.4 0-4.7 0-7.1 0-2.9 0-2.9 2.8-2.9h6.9c0-3.1-.1-5.8 0-8.5.2-5.6 2-10.4 7.5-13.1 4.9-2.4 10-1.4 15.1-1.1.3 0 .9.8.9 1.2.1 2.6 0 5.2 0 7.8 0 1-.4 1.4-1.4 1.4-1.9-.1-3.7-.1-5.6 0-2.3.1-4.2 1.3-4.3 3.1-.2 3-.1 6-.1 9.2h11c-.5 3.5-.9 6.7-1.3 9.9-.1 1.3-.6 1.7-1.9 1.7-2.6-.1-5.2 0-7.8 0-.2 9.8-.2 19.1-.2 28.7z"/><path class="st2" d="M-1000.7 1499.9v-28.5c2.7 0 5.3-.1 7.8 0 1.3 0 1.8-.4 1.9-1.7.3-3.2.8-6.4 1.3-9.9h-11c0-3.2-.2-6.2.1-9.2.1-1.8 2-3 4.3-3.1 1.9-.1 3.7-.1 5.6 0 1 0 1.4-.4 1.4-1.4v-7.8c0-.4-.6-1.2-.9-1.2-5.1-.4-10.2-1.3-15.1 1.1-5.5 2.6-7.2 7.4-7.5 13.1-.1 2.7 0 5.4 0 8.5h-6.9c-2.8 0-2.8 0-2.8 2.9 0 2.4.1 4.7 0 7.1 0 1.3.5 1.8 1.8 1.7 2.5-.1 5.1 0 7.7 0v28.4l-1.8.1h-32.8c-3.1 0-4.7-1.6-4.7-4.6v-64.8c0-3.1 1.5-4.6 4.6-4.6h64.8c3.1 0 4.6 1.5 4.6 4.7v64.8c0 3-1.6 4.6-4.5 4.6-5.8-.2-11.7-.2-17.9-.2z"/><path class="st3" d="M-735.5 1146.6v-29.3c2.8 0 5.4-.1 8.1 0 1.3 0 1.8-.4 2-1.8.3-3.3.8-6.6 1.3-10.2h-11.3c0-3.3-.2-6.4.1-9.5.1-1.9 2.1-3.1 4.5-3.2 1.9-.1 3.8-.1 5.8 0 1.1 0 1.4-.4 1.4-1.4 0-2.7 0-5.3-.1-8 0-.5-.6-1.3-.9-1.3-5.2-.4-10.5-1.3-15.5 1.1-5.6 2.7-7.4 7.7-7.7 13.4-.1 2.8 0 5.6 0 8.7h-7.1c-2.9 0-2.9 0-2.9 3 0 2.4.1 4.8 0 7.3 0 1.4.5 1.8 1.9 1.8 2.6-.1 5.2 0 8 0v29.2l-1.8.1h-33.7c-3.2 0-4.8-1.6-4.8-4.8v-66.6c0-3.2 1.5-4.8 4.8-4.8h66.6c3.2 0 4.8 1.6 4.8 4.8v66.6c0 3.1-1.7 4.7-4.7 4.7-6.3.2-12.5.2-18.8.2z"/><path class="st1" d="M-208.3 433.8v-28.4c2.7 0 5.3-.1 7.8 0 1.3 0 1.8-.4 1.9-1.7.3-3.2.8-6.4 1.3-9.9h-11c0-3.2-.2-6.2.1-9.2.1-1.8 2-3 4.3-3.1 1.9-.1 3.7-.1 5.6 0 1 0 1.4-.4 1.4-1.4v-7.8c0-.4-.6-1.2-.9-1.2-5.1-.4-10.2-1.3-15.1 1.1-5.4 2.6-7.2 7.4-7.5 13-.1 2.7 0 5.4 0 8.5h-6.9c-2.8 0-2.8 0-2.8 2.9 0 2.3.1 4.7 0 7 0 1.3.5 1.8 1.8 1.7 2.5-.1 5 0 7.7 0v28.3c-.6 0-1.2.1-1.7.1h-32.7c-3.1 0-4.7-1.6-4.7-4.6v-64.7c0-3.1 1.5-4.6 4.6-4.6h64.7c3.1 0 4.6 1.5 4.6 4.7v64.7c0 3-1.6 4.6-4.5 4.6h-18z"/></svg>