<?xml version="1.0" encoding="utf-8"?>
<!-- Generator: Adobe Illustrator 19.1.0, SVG Export Plug-In . SVG Version: 6.00 Build 0)  -->
<svg version="1.1" id="Layer_2" xmlns="http://www.w3.org/2000/svg" xmlns:xlink="http://www.w3.org/1999/xlink" x="0px" y="0px"
	 viewBox="-264 355.5 82.6 82.5" style="enable-background:new -264 355.5 82.6 82.5;" xml:space="preserve">
<style type="text/css">
	.st0{fill:#694682;}
	.st1{fill:#FFFFFF;}
	.st2{enable-background:new    ;}
	.st3{fill:#FCFCFC;}
	.st4{fill:#B05AED;}
</style>
<path class="st0" d="M-988.1,1498h-53.5c-4.5,0-8.1-3.7-8.1-8.1v-53.5c0-4.5,3.7-8.1,8.1-8.1h53.5c4.5,0,8.1,3.7,8.1,8.1v53.5
	C-979.9,1494.3-983.6,1498-988.1,1498z"/>
<path class="st1" d="M-1000.4,1437.6c-0.1,0-0.3,0-0.5,0l0,0H-1000.4z"/>
<text transform="matrix(1 0 0 1 -1043.6152 1477.1459)" class="st3" style="font-family:'Arial-Black'; font-size:41px;">Be</text>
<rect x="-1004.1" y="1449.8" class="st3" width="11.9" height="3.5"/>
<path class="st4" d="M-713.6,1076.3v64.8c0,3-1.6,4.6-4.5,4.6c-5.3,0-10.6,0-16,0H-764c-6.4,0-12.7,0-19.1,0c-3.1,0-4.7-1.6-4.7-4.6
	v-64.8c0-3.2,1.5-4.6,4.6-4.7h64.8C-715.2,1071.6-713.6,1073.2-713.6,1076.3z"/>
<path class="st1" d="M-754.6,1104.6c2.3,0.9,4.3,2,4.9,4.6c0.8,3.5,1.2,7-0.5,10.3c-1.9,3.7-5.4,5.1-9.3,5.3c-6,0.2-12,0.1-18,0.1
	c-1,0-1.3-0.5-1.3-1.4c0-11.5,0-22.9,0-34.4c0-1.1,0.4-1.5,1.5-1.5c5.5,0,11-0.1,16.6,0.1c1.8,0,3.6,0.5,5.3,1.1
	c3.1,1.1,5,3.4,5.1,6.8c0.2,3.3-0.6,6.4-3.6,8.3c-0.2,0.1-0.4,0.2-0.5,0.3C-754.4,1104.3-754.4,1104.3-754.6,1104.6z M-769.7,1118
	c3.1,0,6,0.2,8.8-0.1c2.6-0.2,3.9-2,4-4.7c0.1-2.3-1.1-4.2-3.6-4.4c-3-0.3-6.1-0.1-9.2-0.1C-769.7,1111.9-769.7,1114.9-769.7,1118z
	 M-769.8,1094.3c0,2.4,0,4.5,0,6.7c0,0.9,0.5,1.1,1.2,1.1c2.2,0,4.3,0,6.5-0.1c2.3-0.1,3.7-1.4,3.9-3.3c0.2-2.2-1.1-4.1-3.5-4.3
	C-764.3,1094.1-766.9,1094.3-769.8,1094.3z"/>
<path class="st1" d="M-740.7,1113.1c-0.2,2.7,1.5,5.5,3.7,6.2c2.7,0.8,5.3-0.1,6.9-2.5c0.2-0.3,0.6-0.6,1-0.6c1.9-0.1,3.9,0,6,0
	c-0.5,3.5-2.2,6-4.9,7.8c-4.8,3.1-12.8,2.9-17.1-2.7c-5.7-7.5-4-18.3,4-23c7.1-4.1,17.1,0.7,18.2,8.9c0.2,1.4,0.2,2.9,0.3,4.4
	c0.1,1.2-0.4,1.6-1.6,1.6c-4.9-0.1-9.8,0-14.8,0C-739.6,1113.1-740.2,1113.1-740.7,1113.1z M-730.7,1107.7c-0.1-2.9-2-4.8-4.8-4.8
	c-2.8-0.1-5.1,2-5.3,4.8C-737.4,1107.7-734.1,1107.7-730.7,1107.7z"/>
<path class="st1" d="M-735.9,1095.6c-3.4,0-6.7,0-10.1,0c-1.1,0-1.7-0.2-1.6-1.5c0.1-4-0.6-3.5,3.5-3.5c6,0,12,0,18,0
	c1.6,0,2.2,0.3,2.1,2.1c-0.1,3,0,3-3.1,3C-729.9,1095.6-732.9,1095.6-735.9,1095.6L-735.9,1095.6z"/>
<path class="st1" d="M-240.3,391.3c0-1.9,0-3.7,0-5.8c2.5,0,4.9-0.2,7.2,0c2.1,0.2,3.2,1.8,3.1,3.8c-0.1,1.7-1.4,2.9-3.4,3
	c-1.9,0.1-3.8,0-5.8,0.1C-240,392.4-240.3,392.2-240.3,391.3z"/>
<path class="st1" d="M-228.9,402.2c0,2.5-1.2,4.2-3.6,4.4c-2.5,0.2-5.1,0-7.7,0v-8.4c2.7,0,5.3-0.2,7.8,0
	C-230.2,398.5-228.9,400.2-228.9,402.2z"/>
<path class="st1" d="M-190.4,359.8h-64.7c-3.1,0-4.6,1.5-4.6,4.6v64.7c0,3.1,1.6,4.6,4.7,4.6h49.2c5.3,0,10.4,0,15.6,0
	c2.9,0,4.5-1.6,4.5-4.6v-64.7C-185.8,361.3-187.3,359.8-190.4,359.8z M-220,383.9c0-1.2,1-0.9,1.6-0.9c4.9,0,9.7,0,14.6,0
	c1.2,0,2.4,0,3.6,0c0.8,0,1.3,0.3,1.2,1.2c-0.1,1,0,2,0,3.2h-21C-220,386.2-220,385-220,383.9z M-222.3,408.6
	c-1.7,3.3-4.8,4.6-8.2,4.8c-5.4,0.2-10.8,0-16.2,0.1c-1.3,0-1.1-0.8-1.1-1.6c0-9,0-17.9,0-26.9c0-1.2-0.1-2.4,0-3.6
	c0-0.4,0.6-1.1,0.9-1.1c5.6,0,11.2,0.1,16.7,0.2c0.8,0,1.6,0.3,2.4,0.5c2.8,0.9,4.9,2.6,5.2,5.7c0.4,3.4-0.2,6.3-3.5,8.2
	c-0.1,0.1-0.2,0.2-0.3,0.3c0,0.1,0.1,0.1,0.1,0.1c1.9,0.9,3.7,1.9,4.2,4.2C-221.1,402.6-220.8,405.7-222.3,408.6z M-199.3,403
	c-4.5,0-9,0-13.4,0c-0.4,0-0.9,0-1.3,0.1c-0.2,2.4,1.4,4.9,3.3,5.5c2.4,0.8,4.7-0.1,6.1-2.2c0.2-0.3,0.6-0.6,0.9-0.6
	c1.7-0.1,3.4,0,5.2,0c0.2,2.7-2.6,6.5-5.4,7.7c-8.9,3.7-16-2.2-16.9-10.5c-0.6-5.7,1.7-10.1,6.5-13c6.3-3.8,15.2,0.6,16.2,7.9
	c0.2,1.3,0.2,2.6,0.3,3.9C-197.8,402.7-198.2,403.1-199.3,403z M-208.6,394c-2.8-0.4-4.9,1.2-5.5,4.2h8.9
	C-204.9,396.1-206.4,394.3-208.6,394z"/>
</svg>
