<?xml version="1.0" encoding="utf-8"?>
<!-- Generator: Adobe Illustrator 19.1.0, SVG Export Plug-In . SVG Version: 6.00 Build 0)  -->
<svg version="1.1" id="Layer_2" xmlns="http://www.w3.org/2000/svg" xmlns:xlink="http://www.w3.org/1999/xlink" x="0px" y="0px"
	 viewBox="-264 355.5 82.6 82.5" style="enable-background:new -264 355.5 82.6 82.5;" xml:space="preserve">
<style type="text/css">
	.st0{fill:#694682;}
	.st1{fill:#FFFFFF;}
	.st2{fill:#B05AED;}
	.st3{fill:#7108AF;}
	.st4{fill:#FFFFFF;stroke:#231F20;stroke-miterlimit:10;}
</style>
<path class="st0" d="M-1516.1,2209h-53.5c-4.5,0-8.1-3.7-8.1-8.1v-53.5c0-4.5,3.7-8.1,8.1-8.1h53.5c4.5,0,8.1,3.7,8.1,8.1v53.5
	C-1507.9,2205.3-1511.6,2209-1516.1,2209z"/>
<path class="st1" d="M-1528.1,2162.5v4.4h8.9v7.2h-8.9v34.9h-7.8v-34.9h-8.9v-7.2h8.9v-4.4c0,0,0-4.6,0-9.4c0-3.8,5-4.4,6.9-4.5
	c0.2,0,0.4,0,0.5,0c0.2,0,0.3,0,0.3,0h9.1v7.7h-6.5C-1528.7,2156.4-1528.1,2162.5-1528.1,2162.5z"/>
<path class="st1" d="M-1528.4,2148.6c-0.1,0-0.3,0-0.5,0l0,0H-1528.4z"/>
<path class="st1" d="M-1317.8,1779.7v77.2h77.2v-77.2H-1317.8z M-1242.1,1850.8c0,1.6-0.4,2.8-1.3,3.5h0c-0.8,0.7-1.8,1.1-3.2,1.1
	h-18.1c0-9.5,0-18.8,0.2-28.5v-0.2c2.6,0,5.2-0.1,7.8,0c0.6,0,1.1-0.1,1.3-0.3c0,0,0,0,0,0c0.3-0.2,0.5-0.7,0.5-1.3
	c0.4-3.2,0.8-6.4,1.3-9.9h-11c0-3.2-0.1-6.2,0.1-9.2c0-0.6,0.3-1.2,0.7-1.6c0.1-0.1,0.1-0.1,0.2-0.2c0.8-0.8,2.1-1.3,3.5-1.3
	c1.9-0.1,3.7-0.1,5.6,0c0.4,0,0.7-0.1,1-0.2l0,0c0.3-0.2,0.4-0.6,0.4-1.2c0-2.6,0.1-5.2,0-7.8c0-0.4-0.6-1.2-0.9-1.2
	c-5.1-0.3-10.2-1.3-15.1,1.1c-0.9,0.5-1.8,1-2.5,1.6c-0.1,0.1-0.3,0.2-0.4,0.3c-3.3,2.8-4.4,6.8-4.6,11.2c-0.1,2.7,0,5.4,0,8.5h-6.9
	c-1.5,0-2.2,0-2.5,0.5c-0.3,0.4-0.3,1.1-0.3,2.4c0,2.4,0.1,4.7,0,7.1c0,1.3,0.5,1.7,1.8,1.7c2.5-0.1,5,0,7.7,0v28.4
	c-0.1,0-0.1,0-0.2,0c-0.5,0-1.1,0.1-1.6,0.1h-32.8c-3.1,0-4.7-1.5-4.7-4.6v-64.8c0-1.5,0.3-2.6,1-3.3c0.1-0.1,0.1-0.1,0.2-0.2
	c0.8-0.7,1.9-1.1,3.4-1.1h64.8c3.1,0,4.6,1.6,4.6,4.7V1850.8z"/>
<path class="st2" d="M-1264.7,1855.4c0-9.6,0-18.9,0-28.5c2.7,0,5.3-0.1,7.8,0c1.3,0,1.8-0.4,1.9-1.7c0.3-3.2,0.8-6.4,1.3-9.9
	c-3.8,0-7.3,0-11,0c0-3.2-0.2-6.2,0.1-9.2c0.1-1.8,2-3,4.3-3.1c1.9-0.1,3.7-0.1,5.6,0c1,0,1.4-0.4,1.4-1.4c0-2.6,0-5.2,0-7.8
	c0-0.4-0.6-1.2-0.9-1.2c-5.1-0.4-10.2-1.3-15.1,1.1c-5.5,2.6-7.2,7.4-7.5,13.1c-0.1,2.7,0,5.4,0,8.5c-2.4,0-4.6,0-6.9,0
	c-2.8,0-2.8,0-2.8,2.9c0,2.4,0.1,4.7,0,7.1c0,1.3,0.5,1.8,1.8,1.7c2.5-0.1,5.1,0,7.7,0c0,9.5,0,18.9,0,28.4c-0.6,0-1.2,0.1-1.8,0.1
	c-10.9,0-21.9,0-32.8,0c-3.1,0-4.7-1.6-4.7-4.6c0-21.6,0-43.2,0-64.8c0-3.1,1.5-4.6,4.6-4.6c21.6,0,43.2,0,64.8,0
	c3.1,0,4.6,1.5,4.6,4.7c0,21.6,0,43.2,0,64.8c0,3-1.6,4.6-4.5,4.6C-1252.6,1855.4-1258.5,1855.4-1264.7,1855.4z"/>
<path class="st3" d="M-999.5,1502.1c0-9.9,0-19.5,0-29.3c2.8,0,5.4-0.1,8.1,0c1.3,0,1.8-0.4,2-1.8c0.3-3.3,0.8-6.6,1.3-10.2
	c-3.9,0-7.5,0-11.3,0c0-3.3-0.2-6.4,0.1-9.5c0.1-1.9,2.1-3.1,4.5-3.2c1.9-0.1,3.8-0.1,5.8,0c1.1,0,1.4-0.4,1.4-1.4
	c0-2.7,0-5.3-0.1-8c0-0.5-0.6-1.3-0.9-1.3c-5.2-0.4-10.5-1.3-15.5,1.1c-5.6,2.7-7.4,7.7-7.7,13.4c-0.1,2.8,0,5.6,0,8.7
	c-2.4,0-4.7,0-7.1,0c-2.9,0-2.9,0-2.9,3c0,2.4,0.1,4.8,0,7.3c0,1.4,0.5,1.8,1.9,1.8c2.6-0.1,5.2,0,8,0c0,9.8,0,19.4,0,29.2
	c-0.6,0-1.2,0.1-1.8,0.1c-11.2,0-22.5,0-33.7,0c-3.2,0-4.8-1.6-4.8-4.8c0-22.2,0-44.4,0-66.6c0-3.2,1.5-4.8,4.8-4.8
	c22.2,0,44.4,0,66.6,0c3.2,0,4.8,1.6,4.8,4.8c0,22.2,0,44.4,0,66.6c0,3.1-1.7,4.7-4.7,4.7C-987,1502.1-993.2,1502.1-999.5,1502.1z"
	/>
<path class="st1" d="M-220.5,432.5L-220.5,432.5c-0.6,0.1-1.2,0.2-1.7,0.2H-255c-3.1,0-4.7-1.6-4.7-4.6v-0.3c0,3.2,1.5,4.7,4.6,4.7
	H-220.5z"/>
<path class="st1" d="M-185.8,427.9v0.3c0,3-1.6,4.6-4.5,4.6h-18v-0.3h17.9C-187.2,432.5-185.8,431-185.8,427.9z"/>
<polygon class="st4" points="-214.3,397.9 -185.8,367.5 -185.8,423.1 "/>
<polygon class="st4" points="-231.6,397.7 -259.7,422.5 -259.7,367.5 "/>
<path class="st4" d="M-185.8,424.9v3c0,3.1-1.5,4.6-4.6,4.6H-255c-3.1,0-4.6-1.5-4.6-4.7v-3.5l29-25.6l7.8,8.4l7.7-8.2L-185.8,424.9
	z"/>
<path class="st4" d="M-186.7,361.7L-186.7,361.7l-36.3,39.6l0,0l0,0l0,0l-4.7-5.1l-0.9-1l-4.1-4.4l-21.5-23.2l-4.7-5.1
	c0.2-0.3,0.3-0.5,0.6-0.7c0.6-0.6,1.5-0.9,2.6-1h30.5v-0.1c0.1,0,0.1,0,0.2,0l33.1-0.1h2c0.8,0,1.4,0.2,2,0.4
	C-187.9,361-186.9,361.6-186.7,361.7z"/>
<path class="st4" d="M-185.8,424.9v3c0,3.1-1.5,4.6-4.6,4.6H-255c-3.1,0-4.6-1.5-4.6-4.7v-3.5l29-25.6l7.8,8.4l7.7-8.2L-185.8,424.9
	z"/>
</svg>
