<?xml version="1.0" encoding="utf-8"?>
<!-- Generator: Adobe Illustrator 19.1.0, SVG Export Plug-In . SVG Version: 6.00 Build 0)  -->
<svg version="1.1" id="Layer_1" xmlns="http://www.w3.org/2000/svg" xmlns:xlink="http://www.w3.org/1999/xlink" x="0px" y="0px"
	 viewBox="-354 571.5 82.6 82.5" style="enable-background:new -354 571.5 82.6 82.5;" xml:space="preserve">
<style type="text/css">
	.st0{fill:#694682;}
	.st1{fill:#FFFFFF;}
	.st2{fill:#B05AED;}
	.st3{fill:#7108AF;}
</style>
<path class="st0" d="M-1870.1,2780.5h-53.5c-4.5,0-8.1-3.7-8.1-8.1v-53.5c0-4.5,3.7-8.1,8.1-8.1h53.5c4.5,0,8.1,3.7,8.1,8.1v53.5
	C-1861.9,2776.8-1865.6,2780.5-1870.1,2780.5z"/>
<path class="st1" d="M-1671.8,2351.2v77.2h77.2v-77.2H-1671.8z M-1596.1,2422.3c0,1.6-0.4,2.8-1.3,3.5h0c-0.8,0.7-1.8,1.1-3.2,1.1
	h-18.1c0-9.5,0-18.8,0.2-28.5v-0.2c2.6,0,5.2-0.1,7.8,0c0.6,0,1.1-0.1,1.3-0.3c0,0,0,0,0,0c0.3-0.2,0.5-0.7,0.5-1.4
	c0.4-3.2,0.8-6.4,1.3-9.9h-11c0-3.2-0.1-6.2,0.1-9.2c0-0.6,0.3-1.2,0.7-1.6c0.1-0.1,0.1-0.1,0.2-0.2c0.8-0.8,2.1-1.3,3.5-1.3
	c1.9-0.1,3.7-0.1,5.6,0c0.4,0,0.7-0.1,1-0.2l0,0c0.3-0.2,0.4-0.6,0.4-1.2c0-2.6,0.1-5.2,0-7.8c0-0.4-0.6-1.2-0.9-1.2
	c-5.1-0.3-10.2-1.3-15.1,1.1c-0.9,0.5-1.8,1-2.5,1.6c-0.1,0.1-0.3,0.2-0.4,0.3c-3.3,2.8-4.4,6.8-4.6,11.2c-0.1,2.7,0,5.4,0,8.5h-6.9
	c-1.5,0-2.2,0-2.5,0.5c-0.3,0.4-0.3,1.1-0.3,2.4c0,2.4,0.1,4.7,0,7.1c0,1.3,0.5,1.7,1.8,1.7c2.5-0.1,5,0,7.7,0v28.4l-0.2,0l-1.6,0.1
	h-32.8c-3.1,0-4.7-1.5-4.7-4.6v-64.8c0-1.5,0.3-2.6,1-3.3c0.1-0.1,0.1-0.1,0.2-0.2c0.8-0.7,1.9-1.1,3.4-1.1h64.8
	c3.1,0,4.6,1.6,4.6,4.7V2422.3z M-1879.6,2727.8h6.5v-7.7h-9.9c-1.9,0.1-6.9,0.7-6.9,4.5v13.8h-8.9v7.2h8.9v34.9h7.8v-34.9h8.9v-7.2
	h-8.9v-4.4C-1882.1,2734-1882.7,2727.9-1879.6,2727.8z"/>
<path class="st2" d="M-1618.7,2426.9v-28.5c2.7,0,5.3-0.1,7.8,0c1.3,0,1.8-0.4,1.9-1.7c0.3-3.2,0.8-6.4,1.3-9.9h-11
	c0-3.2-0.2-6.2,0.1-9.2c0.1-1.8,2-3,4.3-3.1c1.9-0.1,3.7-0.1,5.6,0c1,0,1.4-0.4,1.4-1.4v-7.8c0-0.4-0.6-1.2-0.9-1.2
	c-5.1-0.4-10.2-1.3-15.1,1.1c-5.5,2.6-7.2,7.4-7.5,13.1c-0.1,2.7,0,5.4,0,8.5h-6.9c-2.8,0-2.8,0-2.8,2.9c0,2.4,0.1,4.7,0,7.1
	c0,1.3,0.5,1.8,1.8,1.7c2.5-0.1,5.1,0,7.7,0v28.4l-1.8,0.1h-32.8c-3.1,0-4.7-1.6-4.7-4.6v-64.8c0-3.1,1.5-4.6,4.6-4.6h64.8
	c3.1,0,4.6,1.5,4.6,4.7v64.8c0,3-1.6,4.6-4.5,4.6C-1606.6,2426.9-1612.5,2426.9-1618.7,2426.9z"/>
<path class="st3" d="M-1353.5,2073.6v-29.3c2.8,0,5.4-0.1,8.1,0c1.3,0,1.8-0.4,2-1.8c0.3-3.3,0.8-6.6,1.3-10.2h-11.3
	c0-3.3-0.2-6.4,0.1-9.5c0.1-1.9,2.1-3.1,4.5-3.2c1.9-0.1,3.8-0.1,5.8,0c1.1,0,1.4-0.4,1.4-1.4c0-2.7,0-5.3-0.1-8
	c0-0.5-0.6-1.3-0.9-1.3c-5.2-0.4-10.5-1.3-15.5,1.1c-5.6,2.7-7.4,7.7-7.7,13.4c-0.1,2.8,0,5.6,0,8.7h-7.1c-2.9,0-2.9,0-2.9,3
	c0,2.4,0.1,4.8,0,7.3c0,1.4,0.5,1.8,1.9,1.8c2.6-0.1,5.2,0,8,0v29.2l-1.8,0.1h-33.7c-3.2,0-4.8-1.6-4.8-4.8v-66.6
	c0-3.2,1.5-4.8,4.8-4.8h66.6c3.2,0,4.8,1.6,4.8,4.8v66.6c0,3.1-1.7,4.7-4.7,4.7C-1341,2073.6-1347.2,2073.6-1353.5,2073.6
	L-1353.5,2073.6z"/>
<path class="st1" d="M-275.8,579.1l0,3.2l0,1.6l0.1-0.1v-4.5C-275.8,579.2-275.8,579.1-275.8,579.1z M-275.8,641L-275.8,641l0-0.4
	C-275.8,640.7-275.8,640.9-275.8,641z M-349.7,634.9v3.7l0,0L-349.7,634.9L-349.7,634.9z"/>
<path class="st1" d="M-349.7,577.7v0.4C-349.7,578-349.7,577.8-349.7,577.7L-349.7,577.7z M-349.6,638.6l0,1.7c0,0.1,0,0.1,0,0.2h0
	L-349.6,638.6L-349.6,638.6z M-275.8,579.1L-275.8,579.1l0,3.2l0,1.6l0.1-0.1v-5.2L-275.8,579.1z"/>
<path class="st1" d="M-275.8,641L-275.8,641l0-0.4C-275.8,640.7-275.8,640.9-275.8,641z M-349.6,634.8L-349.6,634.8l-0.1,8.3
	c0,0.1,0,0.1,0,0.2l0-2.8l0-2l0,0L-349.6,634.8z"/>
<path class="st1" d="M-275.8,586.8l-0.1-0.9l0-0.6l-36.9,38.7l-36.9-39.6v50.5l0.1-0.1l0,3.7l0,0l0,2l0,2.8c0,0,0,0,0,0v0l0,0.6
	c0,0.1,0,0.2,0,0.2h0.1c0.1,2.3,1,3.6,2.7,4.2c0,0,0.9,0,2.5,0c12.2,0.1,64,0.5,64,0.5c2.9,0,4.5-1.6,4.5-4.6V641l0,0
	c0-0.1,0-0.2,0-0.4V586.8z M-277.7,648c0.9-0.5,1.5-1.3,1.8-2.4C-276.2,646.8-276.7,647.6-277.7,648z"/>
<path class="st1" d="M-277.6,575.1c0.4,0.2,0.8,0.5,1,0.9l0,0C-276.8,575.6-277.1,575.3-277.6,575.1z"/>
<path class="st1" d="M-276.4,575.8L-276.4,575.8c-0.4-0.9-1.1-1.5-2.2-1.8c-0.1,0-66.6-0.5-66.6-0.5c-2.8,0-4.4,1.5-4.5,4.2
	l36.7,38.1l37.2-37.3l0.1-0.1C-275.7,577.4-276,576.5-276.4,575.8z M-349.5,576.8c0.2-1.2,0.8-2,1.8-2.4
	C-348.6,574.8-349.2,575.6-349.5,576.8z M-276.5,575.9c-0.3-0.4-0.6-0.7-1-0.9C-277.1,575.3-276.8,575.6-276.5,575.9
	c0.4,0.4,0.6,0.9,0.7,1.6C-275.9,576.9-276.2,576.4-276.5,575.9z"/>
<path class="st1" d="M-349.6,644.2L-349.6,644.2l0-0.2C-349.7,644.1-349.7,644.1-349.6,644.2z"/>
<g>
	<polygon class="st1" points="-275.7,635.6 -275.7,639.3 -275.6,639.3 -275.6,635.6 	"/>
	<path class="st1" d="M-275.6,578.4c0,0.1,0,0.2,0,0.4L-275.6,578.4L-275.6,578.4z"/>
	<path class="st1" d="M-275.7,639.3l0,2h0c0-0.1,0-0.1,0-0.2L-275.7,639.3L-275.7,639.3z"/>
	<path class="st1" d="M-275.7,639.3L-275.7,639.3l0,1.9l0,2.8c0,0,0-0.1,0-0.2v-8.2l-0.1-0.1L-275.7,639.3z"/>
	<path class="st1" d="M-277.7,648c0.9-0.5,1.5-1.3,1.8-2.4C-276.2,646.8-276.7,647.6-277.7,648z"/>
	<path class="st1" d="M-275.6,635.6L-275.6,635.6l0,3.7l0,0l0,2l0,2.8c0,0,0,0,0,0v0l0,0.6c0,0.1,0,0.1,0,0.2h-0.1
		c-0.1,2.3-1,3.7-2.7,4.2c-0.1,0-66.6,0.5-66.6,0.5l0.8-1.2c12.2,0.1,64,0.5,64,0.5c2.9,0,4.5-1.6,4.5-4.6V641l0,0
		c0-0.1,0-0.2,0-0.4v-56.8l-0.1,0.1l0-1.6l0,0l0.1-0.1V635.6z"/>
	<path class="st1" d="M-275.8,577.5c-0.2-0.6-0.4-1.2-0.7-1.6c-0.3-0.4-0.6-0.7-1-0.9c0.4,0.2,0.8,0.5,1.1,0.8
		C-276.2,576.3-275.9,576.9-275.8,577.5z"/>
	<path class="st1" d="M-275.8,577.5c-0.2-0.6-0.4-1.2-0.7-1.6c-0.3-0.4-0.6-0.7-1-0.9c0.4,0.2,0.8,0.5,1.1,0.8
		C-276.2,576.3-275.9,576.9-275.8,577.5z"/>
	<path class="st1" d="M-275.6,644.9L-275.6,644.9l0-0.2C-275.6,644.8-275.6,644.8-275.6,644.9z"/>
</g>
</svg>
