<?xml version="1.0" encoding="utf-8"?>
<!-- Generator: Adobe Illustrator 19.1.0, SVG Export Plug-In . SVG Version: 6.00 Build 0)  -->
<svg version="1.1" id="Layer_1" xmlns="http://www.w3.org/2000/svg" xmlns:xlink="http://www.w3.org/1999/xlink" x="0px" y="0px"
	 viewBox="0 0 2233.6 889.3" style="enable-background:new 0 0 2233.6 889.3;" xml:space="preserve">
<style type="text/css">
	.st0{fill:#9D5FE0;}
	.st1{fill:#FFFFFF;}
	.st2{font-family:'MyriadPro-Bold';}
	.st3{font-size:468.5706px;}
</style>
<path class="st0" d="M2054.1,248.2L1980,412.5l90.9-75.7c14.5,182.1-102.9,313-102.9,313s-65.8,45.4-160.9,76.4l43-123l-160.8,148.8
	c-35.6,3.8-72.9,3.8-110.5-1.8l50.1-55.8l-100.6,44.7c-75.4-22.6-132.3-77.4-174.4-138.5l67.2-104l-98.7,52.4
	c-52.3-96.1-72-190.6-72-190.6s-9.9-72.5,9.9-105.2c0,0,18-67.3,148.1-108.4l-99.8,180.3l151.4-194.4
	c61.1-15.8,133.5-34.1,200.9-49.5l-114,147.1l185.8-162.6c70.7-14.2,127.1-21.8,144.9-14.5c6.7,2.7,14.8,5,23.9,7.9l-52.7,58.8
	l93.8-42.1C1980.8,97,2024,140.5,2054.1,248.2z"/>
<text transform="matrix(0.974 -0.2265 0.2265 0.974 1478.673 575.1486)" class="st1 st2 st3">Ps</text>
<path class="st0" d="M933.5,451.6l-115.9,127L922.5,537c-40.8,169.4-186.1,253.3-186.1,253.3s-73.1,21.6-168.6,21.6l75.4-98.8
	l-189.9,87.2c-33.4-7.2-67.2-18.2-99.6-34.4l61.9-35.8l-104.4,10.7c-61.7-42.8-97-109.4-117-177.3l91.7-74.4l-105,18.2
	c-18.9-102.7-8.7-194.1-8.7-194.1s12.5-68.6,40.2-92.4c0,0,36.3-55.7,166.4-54.4L234.7,300.3L429.6,169
	c60.1,3.8,131.1,8.6,196.8,14.7l-146.9,99.6L696.2,191c68.3,8.1,121.7,17.9,135.7,29.8c5.3,4.5,11.9,9,19.3,14.2L786,272.7
	l97.5-10.4C911.9,292.7,938.1,345,933.5,451.6z"/>
<text transform="matrix(0.974 -0.2265 0.2265 0.974 355.9868 654.5314)" class="st1 st2 st3">Ps</text>
</svg>
