<?xml version="1.0" encoding="utf-8"?>
<!-- Generator: Adobe Illustrator 19.1.0, SVG Export Plug-In . SVG Version: 6.00 Build 0)  -->
<svg version="1.1" id="Layer_2" xmlns="http://www.w3.org/2000/svg" xmlns:xlink="http://www.w3.org/1999/xlink" x="0px" y="0px"
	 viewBox="-264 355.5 82.6 82.5" style="enable-background:new -264 355.5 82.6 82.5;" xml:space="preserve">
<style type="text/css">
	.st0{fill:#694682;}
	.st1{fill:#FFFFFF;}
</style>
<path class="st0" d="M-196.1,431.5h-53.5c-4.5,0-8.1-3.7-8.1-8.1v-53.5c0-4.5,3.7-8.1,8.1-8.1h53.5c4.5,0,8.1,3.7,8.1,8.1v53.5
	C-187.9,427.8-191.6,431.5-196.1,431.5z"/>
<path class="st1" d="M-208.1,385v4.4h8.9v7.2h-8.9v34.9h-7.8v-34.9h-8.9v-7.2h8.9V385c0,0,0-4.6,0-9.4c0-3.8,5-4.4,6.9-4.5
	c0.2,0,0.4,0,0.5,0c0.2,0,0.3,0,0.3,0h9.1v7.7h-6.5C-208.7,378.9-208.1,385-208.1,385z"/>
<path class="st1" d="M-208.4,371.1c-0.1,0-0.3,0-0.5,0v0H-208.4z"/>
</svg>
