<?xml version="1.0" encoding="utf-8"?>
<!-- Generator: Adobe Illustrator 19.1.0, SVG Export Plug-In . SVG Version: 6.00 Build 0)  -->
<svg version="1.1" id="Layer_2" xmlns="http://www.w3.org/2000/svg" xmlns:xlink="http://www.w3.org/1999/xlink" x="0px" y="0px"
	 viewBox="-264 355.5 82.6 82.5" style="enable-background:new -264 355.5 82.6 82.5;" xml:space="preserve">
<style type="text/css">
	.st0{fill:#694682;}
	.st1{fill:#FFFFFF;}
	.st2{fill:#B05AED;}
	.st3{fill:#7108AF;}
</style>
<path class="st0" d="M-1252.1,1853.5h-53.5c-4.5,0-8.1-3.7-8.1-8.1v-53.5c0-4.5,3.7-8.1,8.1-8.1h53.5c4.5,0,8.1,3.7,8.1,8.1v53.5
	C-1243.9,1849.8-1247.6,1853.5-1252.1,1853.5z"/>
<path class="st1" d="M-1264.1,1807v4.4h8.9v7.2h-8.9v34.9h-7.8v-34.9h-8.9v-7.2h8.9v-4.4c0,0,0-4.6,0-9.4c0-3.8,5-4.4,6.9-4.5
	c0.2,0,0.4,0,0.5,0c0.2,0,0.3,0,0.3,0h9.1v7.7h-6.5C-1264.7,1800.9-1264.1,1807-1264.1,1807z"/>
<path class="st1" d="M-1264.4,1793.1c-0.1,0-0.3,0-0.5,0l0,0H-1264.4z"/>
<path class="st1" d="M-976.6,1501.4c-25.7,0-51.4,0-77.2,0c0-25.7,0-51.4,0-77.2c25.7,0,51.4,0,77.2,0
	C-976.6,1450-976.6,1475.7-976.6,1501.4z M-1000.7,1499.9c6.1,0,12.1,0,18.1,0c2.9,0,4.5-1.6,4.5-4.6c0-21.6,0-43.2,0-64.8
	c0-3.1-1.5-4.7-4.6-4.7c-21.6,0-43.2,0-64.8,0c-3.1,0-4.6,1.5-4.6,4.6c0,21.6,0,43.2,0,64.8c0,3.1,1.6,4.6,4.7,4.6
	c10.9,0,21.9,0,32.8,0c0.6,0,1.2-0.1,1.8-0.1c0-9.5,0-18.9,0-28.4c-2.7,0-5.2-0.1-7.7,0c-1.3,0-1.8-0.4-1.8-1.7c0.1-2.4,0-4.7,0-7.1
	c0-2.9,0-2.9,2.8-2.9c2.3,0,4.5,0,6.9,0c0-3.1-0.1-5.8,0-8.5c0.2-5.6,2-10.4,7.5-13.1c4.9-2.4,10-1.4,15.1-1.1
	c0.3,0,0.9,0.8,0.9,1.2c0.1,2.6,0,5.2,0,7.8c0,1-0.4,1.4-1.4,1.4c-1.9-0.1-3.7-0.1-5.6,0c-2.3,0.1-4.2,1.3-4.3,3.1
	c-0.2,3-0.1,6-0.1,9.2c3.7,0,7.3,0,11,0c-0.5,3.5-0.9,6.7-1.3,9.9c-0.1,1.3-0.6,1.7-1.9,1.7c-2.6-0.1-5.2,0-7.8,0
	C-1000.7,1481-1000.7,1490.3-1000.7,1499.9z"/>
<path class="st2" d="M-1000.7,1499.9c0-9.6,0-18.9,0-28.5c2.7,0,5.3-0.1,7.8,0c1.3,0,1.8-0.4,1.9-1.7c0.3-3.2,0.8-6.4,1.3-9.9
	c-3.8,0-7.3,0-11,0c0-3.2-0.2-6.2,0.1-9.2c0.1-1.8,2-3,4.3-3.1c1.9-0.1,3.7-0.1,5.6,0c1,0,1.4-0.4,1.4-1.4c0-2.6,0-5.2,0-7.8
	c0-0.4-0.6-1.2-0.9-1.2c-5.1-0.4-10.2-1.3-15.1,1.1c-5.5,2.6-7.2,7.4-7.5,13.1c-0.1,2.7,0,5.4,0,8.5c-2.4,0-4.6,0-6.9,0
	c-2.8,0-2.8,0-2.8,2.9c0,2.4,0.1,4.7,0,7.1c0,1.3,0.5,1.8,1.8,1.7c2.5-0.1,5.1,0,7.7,0c0,9.5,0,18.9,0,28.4c-0.6,0-1.2,0.1-1.8,0.1
	c-10.9,0-21.9,0-32.8,0c-3.1,0-4.7-1.6-4.7-4.6c0-21.6,0-43.2,0-64.8c0-3.1,1.5-4.6,4.6-4.6c21.6,0,43.2,0,64.8,0
	c3.1,0,4.6,1.5,4.6,4.7c0,21.6,0,43.2,0,64.8c0,3-1.6,4.6-4.5,4.6C-988.6,1499.9-994.5,1499.9-1000.7,1499.9z"/>
<path class="st3" d="M-735.5,1146.6c0-9.9,0-19.5,0-29.3c2.8,0,5.4-0.1,8.1,0c1.3,0,1.8-0.4,2-1.8c0.3-3.3,0.8-6.6,1.3-10.2
	c-3.9,0-7.5,0-11.3,0c0-3.3-0.2-6.4,0.1-9.5c0.1-1.9,2.1-3.1,4.5-3.2c1.9-0.1,3.8-0.1,5.8,0c1.1,0,1.4-0.4,1.4-1.4
	c0-2.7,0-5.3-0.1-8c0-0.5-0.6-1.3-0.9-1.3c-5.2-0.4-10.5-1.3-15.5,1.1c-5.6,2.7-7.4,7.7-7.7,13.4c-0.1,2.8,0,5.6,0,8.7
	c-2.4,0-4.7,0-7.1,0c-2.9,0-2.9,0-2.9,3c0,2.4,0.1,4.8,0,7.3c0,1.4,0.5,1.8,1.9,1.8c2.6-0.1,5.2,0,8,0c0,9.8,0,19.4,0,29.2
	c-0.6,0-1.2,0.1-1.8,0.1c-11.2,0-22.5,0-33.7,0c-3.2,0-4.8-1.6-4.8-4.8c0-22.2,0-44.4,0-66.6c0-3.2,1.5-4.8,4.8-4.8
	c22.2,0,44.4,0,66.6,0c3.2,0,4.8,1.6,4.8,4.8c0,22.2,0,44.4,0,66.6c0,3.1-1.7,4.7-4.7,4.7C-723,1146.6-729.2,1146.6-735.5,1146.6z"
	/>
<path class="st1" d="M-208.3,433.8c0-9.6,0-18.9,0-28.4c2.7,0,5.3-0.1,7.8,0c1.3,0,1.8-0.4,1.9-1.7c0.3-3.2,0.8-6.4,1.3-9.9
	c-3.8,0-7.3,0-11,0c0-3.2-0.2-6.2,0.1-9.2c0.1-1.8,2-3,4.3-3.1c1.9-0.1,3.7-0.1,5.6,0c1,0,1.4-0.4,1.4-1.4c0-2.6,0-5.2,0-7.8
	c0-0.4-0.6-1.2-0.9-1.2c-5.1-0.4-10.2-1.3-15.1,1.1c-5.4,2.6-7.2,7.4-7.5,13c-0.1,2.7,0,5.4,0,8.5c-2.4,0-4.6,0-6.9,0
	c-2.8,0-2.8,0-2.8,2.9c0,2.3,0.1,4.7,0,7c0,1.3,0.5,1.8,1.8,1.7c2.5-0.1,5,0,7.7,0c0,9.5,0,18.8,0,28.3c-0.6,0-1.2,0.1-1.7,0.1
	c-10.9,0-21.8,0-32.7,0c-3.1,0-4.7-1.6-4.7-4.6c0-21.6,0-43.1,0-64.7c0-3.1,1.5-4.6,4.6-4.6c21.6,0,43.1,0,64.7,0
	c3.1,0,4.6,1.5,4.6,4.7c0,21.6,0,43.1,0,64.7c0,3-1.6,4.6-4.5,4.6C-196.2,433.8-202.2,433.8-208.3,433.8z"/>
</svg>
