<?xml version="1.0" encoding="utf-8"?>
<!-- Generator: Adobe Illustrator 19.1.0, SVG Export Plug-In . SVG Version: 6.00 Build 0)  -->
<svg version="1.1" id="Layer_1" xmlns="http://www.w3.org/2000/svg" xmlns:xlink="http://www.w3.org/1999/xlink" x="0px" y="0px"
	 viewBox="-264 355.5 82.6 82.5" style="enable-background:new -264 355.5 82.6 82.5;" xml:space="preserve">
<style type="text/css">
	.st0{fill:#694682;}
	.st1{fill:#FFFFFF;}
	.st2{fill:#B05AED;}
	.st3{fill:#7108AF;}
	.st4{fill:#FCFCFC;}
</style>
<path class="st0" d="M-1516.1,2209h-53.5c-4.5,0-8.1-3.7-8.1-8.1v-53.5c0-4.5,3.7-8.1,8.1-8.1h53.5c4.5,0,8.1,3.7,8.1,8.1v53.5
	C-1507.9,2205.3-1511.6,2209-1516.1,2209z"/>
<path class="st1" d="M-1528.1,2162.5v4.4h8.9v7.2h-8.9v34.9h-7.8v-34.9h-8.9v-7.2h8.9v-13.8c0-3.8,5-4.4,6.9-4.5h9.9v7.7h-6.5
	C-1528.7,2156.4-1528.1,2162.5-1528.1,2162.5L-1528.1,2162.5z M-1528.4,2148.6h-0.5H-1528.4z M-1240.6,1856.9h-77.2v-77.2h77.2
	L-1240.6,1856.9L-1240.6,1856.9z M-1264.7,1855.4h18.1c2.9,0,4.5-1.6,4.5-4.6V1786c0-3.1-1.5-4.7-4.6-4.7h-64.8
	c-3.1,0-4.6,1.5-4.6,4.6v64.8c0,3.1,1.6,4.6,4.7,4.6h32.8l1.8-0.1v-28.4c-2.7,0-5.2-0.1-7.7,0c-1.3,0-1.8-0.4-1.8-1.7
	c0.1-2.4,0-4.7,0-7.1c0-2.9,0-2.9,2.8-2.9h6.9c0-3.1-0.1-5.8,0-8.5c0.2-5.6,2-10.4,7.5-13.1c4.9-2.4,10-1.4,15.1-1.1
	c0.3,0,0.9,0.8,0.9,1.2c0.1,2.6,0,5.2,0,7.8c0,1-0.4,1.4-1.4,1.4c-1.9-0.1-3.7-0.1-5.6,0c-2.3,0.1-4.2,1.3-4.3,3.1
	c-0.2,3-0.1,6-0.1,9.2h11c-0.5,3.5-0.9,6.7-1.3,9.9c-0.1,1.3-0.6,1.7-1.9,1.7c-2.6-0.1-5.2,0-7.8,0
	C-1264.7,1836.5-1264.7,1845.8-1264.7,1855.4L-1264.7,1855.4z"/>
<path class="st2" d="M-1264.7,1855.4v-28.5c2.7,0,5.3-0.1,7.8,0c1.3,0,1.8-0.4,1.9-1.7c0.3-3.2,0.8-6.4,1.3-9.9h-11
	c0-3.2-0.2-6.2,0.1-9.2c0.1-1.8,2-3,4.3-3.1c1.9-0.1,3.7-0.1,5.6,0c1,0,1.4-0.4,1.4-1.4v-7.8c0-0.4-0.6-1.2-0.9-1.2
	c-5.1-0.4-10.2-1.3-15.1,1.1c-5.5,2.6-7.2,7.4-7.5,13.1c-0.1,2.7,0,5.4,0,8.5h-6.9c-2.8,0-2.8,0-2.8,2.9c0,2.4,0.1,4.7,0,7.1
	c0,1.3,0.5,1.8,1.8,1.7c2.5-0.1,5.1,0,7.7,0v28.4l-1.8,0.1h-32.8c-3.1,0-4.7-1.6-4.7-4.6v-64.8c0-3.1,1.5-4.6,4.6-4.6h64.8
	c3.1,0,4.6,1.5,4.6,4.7v64.8c0,3-1.6,4.6-4.5,4.6C-1252.6,1855.4-1258.5,1855.4-1264.7,1855.4L-1264.7,1855.4z"/>
<path class="st3" d="M-999.5,1502.1v-29.3c2.8,0,5.4-0.1,8.1,0c1.3,0,1.8-0.4,2-1.8c0.3-3.3,0.8-6.6,1.3-10.2h-11.3
	c0-3.3-0.2-6.4,0.1-9.5c0.1-1.9,2.1-3.1,4.5-3.2c1.9-0.1,3.8-0.1,5.8,0c1.1,0,1.4-0.4,1.4-1.4c0-2.7,0-5.3-0.1-8
	c0-0.5-0.6-1.3-0.9-1.3c-5.2-0.4-10.5-1.3-15.5,1.1c-5.6,2.7-7.4,7.7-7.7,13.4c-0.1,2.8,0,5.6,0,8.7h-7.1c-2.9,0-2.9,0-2.9,3
	c0,2.4,0.1,4.8,0,7.3c0,1.4,0.5,1.8,1.9,1.8c2.6-0.1,5.2,0,8,0v29.2l-1.8,0.1h-33.7c-3.2,0-4.8-1.6-4.8-4.8v-66.6
	c0-3.2,1.5-4.8,4.8-4.8h66.6c3.2,0,4.8,1.6,4.8,4.8v66.6c0,3.1-1.7,4.7-4.7,4.7C-987,1502.1-993.2,1502.1-999.5,1502.1
	L-999.5,1502.1z"/>
<path class="st4" d="M-189.8,373.2h-65.9c-2.2,0-4-1.8-4-4v-5.5c0-2.2,1.8-4,4-4h65.9c2.2,0,4,1.8,4,4v5.5
	C-185.8,371.4-187.5,373.2-189.8,373.2z"/>
<path class="st4" d="M-189.8,404.3h-65.9c-2.2,0-4-1.8-4-4v-5.5c0-2.2,1.8-4,4-4h65.9c2.2,0,4,1.8,4,4v5.5
	C-185.7,402.5-187.5,404.3-189.8,404.3z"/>
<path class="st4" d="M-189.8,433.8h-65.9c-2.2,0-4-1.8-4-4v-5.5c0-2.2,1.8-4,4-4h65.9c2.2,0,4,1.8,4,4v5.5
	C-185.8,432-187.5,433.8-189.8,433.8z"/>
</svg>
