<?xml version="1.0" encoding="utf-8"?>
<!-- Generator: Adobe Illustrator 19.1.0, SVG Export Plug-In . SVG Version: 6.00 Build 0)  -->
<svg version="1.1" id="Layer_1" xmlns="http://www.w3.org/2000/svg" xmlns:xlink="http://www.w3.org/1999/xlink" x="0px" y="0px"
	 viewBox="-264 355.5 82.6 82.5" style="enable-background:new -264 355.5 82.6 82.5;" xml:space="preserve">
<style type="text/css">
	.st0{fill:#43572E;}
</style>
<path class="st0" d="M-196.6,374.7h-55c-4.1,0-7.5-3.4-7.5-7.5l0,0c0-4.1,3.4-7.5,7.5-7.5h55c4.1,0,7.5,3.4,7.5,7.5l0,0
	C-189.1,371.3-192.5,374.7-196.6,374.7z"/>
<path class="st0" d="M-196.6,404.2h-55c-4.1,0-7.5-3.4-7.5-7.5l0,0c0-4.1,3.4-7.5,7.5-7.5h55c4.1,0,7.5,3.4,7.5,7.5l0,0
	C-189.1,400.9-192.5,404.2-196.6,404.2z"/>
<path class="st0" d="M-196.6,433.8h-55c-4.1,0-7.5-3.4-7.5-7.5l0,0c0-4.1,3.4-7.5,7.5-7.5h55c4.1,0,7.5,3.4,7.5,7.5l0,0
	C-189.1,430.4-192.5,433.8-196.6,433.8z"/>
</svg>
